<?xml version="1.0" encoding="iso-8859-1"?>
<!-- Generator: Adobe Illustrator 19.0.0, SVG Export Plug-In . SVG Version: 6.00 Build 0)  -->
<svg xmlns="http://www.w3.org/2000/svg" xmlns:xlink="http://www.w3.org/1999/xlink" version="1.1" id="Capa_1" x="0px" y="0px" viewBox="0 0 512 512" style="enable-background:new 0 0 512 512;" xml:space="preserve" width="512px" height="512px">
<g>
	<g>
		<path d="M442,412c-5.52,0-10,4.48-10,10c0,5.52,4.48,10,10,10c5.52,0,10-4.48,10-10C452,416.48,447.52,412,442,412z" fill="#009530"/>
	</g>
</g>
<g>
	<g>
		<path d="M382,412c-5.52,0-10,4.48-10,10c0,5.52,4.48,10,10,10c5.52,0,10-4.48,10-10C392,416.48,387.52,412,382,412z" fill="#009530"/>
	</g>
</g>
<g>
	<g>
		<path d="M322,412c-5.52,0-10,4.48-10,10c0,5.52,4.48,10,10,10c5.52,0,10-4.48,10-10C332,416.48,327.52,412,322,412z" fill="#009530"/>
	</g>
</g>
<g>
	<g>
		<path d="M262,412c-5.52,0-10,4.48-10,10c0,5.52,4.48,10,10,10c5.52,0,10-4.48,10-10C272,416.48,267.52,412,262,412z" fill="#009530"/>
	</g>
</g>
<g>
	<g>
		<path d="M113,352c-5.52,0-10,4.48-10,10c0,5.52,4.48,10,10,10s10-4.48,10-10C123,356.48,118.52,352,113,352z" fill="#009530"/>
	</g>
</g>
<g>
	<g>
		<path d="M30,352c-5.52,0-10,4.48-10,10c0,5.52,4.48,10,10,10s10-4.48,10-10C40,356.48,35.52,352,30,352z" fill="#009530"/>
	</g>
</g>
<g>
	<g>
		<path d="M50,232H40v-30c0-5.522-4.477-10-10-10s-10,4.478-10,10v30H10c-5.523,0-10,4.478-10,10v60c0,5.522,4.477,10,10,10h10v10    c0,5.522,4.477,10,10,10s10-4.478,10-10v-10h10c5.523,0,10-4.478,10-10v-60C60,236.478,55.523,232,50,232z M40,292H20v-40h20V292z    " fill="#009530"/>
	</g>
</g>
<g>
	<g>
		<path d="M133,232h-10v-30c0-5.522-4.477-10-10-10s-10,4.478-10,10v30H93c-5.523,0-10,4.478-10,10v60c0,5.522,4.477,10,10,10h10v10    c0,5.522,4.477,10,10,10s10-4.478,10-10v-10h10c5.523,0,10-4.478,10-10v-60C143,236.478,138.523,232,133,232z M123,292h-20v-40h20    V292z" fill="#009530"/>
	</g>
</g>
<g>
	<g>
		<path d="M482,0H222c-16.542,0-30,13.458-30,30v412c0,16.542,13.458,30,30,30h4.17v10c0,5.514-4.486,10-10,10H133    c-5.514,0-10-4.486-10-10v-80c0-5.522-4.477-10-10-10s-10,4.478-10,10v80c0,3.506,0.61,6.87,1.72,10H50c-5.514,0-10-4.486-10-10    v-80c0-5.522-4.477-10-10-10s-10,4.478-10,10v80c0,16.542,13.458,30,30,30h232c16.542,0,30-13.458,30-30v-10h170    c16.542,0,30-13.458,30-30V30C512,13.458,498.542,0,482,0z M292,482c0,5.514-4.486,10-10,10h-37.55c1.11-3.13,1.72-6.494,1.72-10    v-10H292V482z M492,442c0,5.514-4.486,10-10,10H222c-5.514,0-10-4.486-10-10V140h280V442z M492,120H212V30c0-5.514,4.486-10,10-10    h260c5.514,0,10,4.486,10,10V120z" fill="#009530"/>
	</g>
</g>
<g>
	<g>
		<path d="M462,40h-60c-5.523,0-10,4.478-10,10v40c0,5.522,4.477,10,10,10h60c5.523,0,10-4.478,10-10V50    C472,44.478,467.523,40,462,40z M452,80h-40V60h40V80z" fill="#009530"/>
	</g>
</g>
<g>
	<g>
		<path d="M352,192c-49.626,0-90,40.374-90,90c0,49.626,40.374,90,90,90c49.626,0,90-40.374,90-90C442,232.374,401.626,192,352,192z     M352,352c-38.598,0-70-31.402-70-70c0-38.598,31.402-70,70-70c38.598,0,70,31.402,70,70C422,320.598,390.598,352,352,352z" fill="#009530"/>
	</g>
</g>
<g>
	<g>
		<path d="M387.191,246.807c-3.904-3.904-10.237-3.904-14.142,0l-55.31,55.311c-3.905,3.905-3.905,10.237,0,14.143    c1.953,1.953,4.512,2.929,7.071,2.929c2.559,0,5.119-0.977,7.071-2.929l55.31-55.311    C391.096,257.045,391.096,250.713,387.191,246.807z" fill="#009530"/>
	</g>
</g>
<g>
</g>
<g>
</g>
<g>
</g>
<g>
</g>
<g>
</g>
<g>
</g>
<g>
</g>
<g>
</g>
<g>
</g>
<g>
</g>
<g>
</g>
<g>
</g>
<g>
</g>
<g>
</g>
<g>
</g>
</svg>
